<?xml version="1.0" encoding="UTF-8"?>
<svg id="Discord" xmlns="http://www.w3.org/2000/svg" width="24" height="24" viewBox="0 0 24 24">
  <path d="M20.33,4.43c-1.58-.72-3.24-1.23-4.95-1.52-.23.42-.45.85-.63,1.29-1.82-.27-3.67-.27-5.5,0-.19-.44-.4-.87-.63-1.29-1.71.29-3.38.81-4.96,1.53C.53,9.07-.32,13.59.1,18.05H.1c1.84,1.36,3.89,2.39,6.07,3.05.49-.66.93-1.36,1.3-2.1-.71-.27-1.4-.59-2.05-.98.17-.12.34-.25.5-.38,3.85,1.81,8.3,1.81,12.14,0,.16.13.33.26.5.38-.65.39-1.34.71-2.05.98.37.73.81,1.43,1.3,2.1,2.19-.66,4.24-1.69,6.08-3.05h0c.5-5.17-.85-9.65-3.57-13.62ZM8.01,15.31c-1.18,0-2.16-1.07-2.16-2.4s.94-2.4,2.16-2.4,2.18,1.08,2.16,2.4-.95,2.4-2.16,2.4ZM15.99,15.31c-1.19,0-2.16-1.07-2.16-2.4s.94-2.4,2.16-2.4,2.18,1.08,2.16,2.4-.95,2.4-2.16,2.4Z" fill="#fff"/>
</svg>