<?xml version="1.0" encoding="UTF-8"?>
<svg id="TikTok" xmlns="http://www.w3.org/2000/svg" width="24" height="24" viewBox="0 0 24 24">
  <path d="M19.34,4.81c-1.29-.84-2.23-2.19-2.52-3.76-.06-.34-.1-.69-.1-1.05h-4.13v16.54c-.08,1.85-1.6,3.34-3.47,3.34-.58,0-1.13-.15-1.61-.4-1.1-.58-1.86-1.74-1.86-3.07,0-1.91,1.56-3.47,3.47-3.47.36,0,.7.06,1.02.16v-4.21c-.34-.05-.68-.07-1.02-.07-4.19,0-7.59,3.41-7.59,7.59,0,2.57,1.28,4.84,3.24,6.22,1.23.87,2.73,1.38,4.35,1.38,4.19,0,7.59-3.41,7.59-7.59v-8.39c1.62,1.16,3.6,1.85,5.74,1.85v-4.13c-1.15,0-2.23-.34-3.13-.93Z" fill="#fff"/>
</svg>